<svg xmlns="http://www.w3.org/2000/svg" viewBox="0 0 32 32"><circle fill="#f7931a" cx="16" cy="16" r="16"/><path fill="#fff" d="M22 14.4c.3-2.2-1.3-3.4-3.5-4.2l.7-2.8-1.7-.4-.7 2.6c-.5-.1-1-.2-1.5-.3l.7-2.6-1.6-.4-.7 2.8c-.4-.1-.8-.2-1.2-.3l.1-.5-1.7-.4-.8 3 .1-.1c.4.1.7.2 1 .3l-1.1 4-1.1-.3-.8 3 1.6.4c.5.1 1 .3 1.4.4l-.7 2.8 1.7.4.7-2.8c.5.1.9.2 1.4.3l-.7 2.8 1.6.4.7-2.8c2.9.6 5 .4 5.9-2.3.7-2.1-.1-3.3-1.5-4.1.9-.3 1.5-1 1.6-2zm-3 4.5c-.5 2.1-3.9 1-5.1.7l.9-3.6c1.2.3 4.7.9 4.2 2.9zm.5-4.6c-.4 1.7-3.1.8-4 .6l.8-3.2c1 .2 3.7.6 3.2 2.6z"/></svg>
